<svg width="24" height="24" viewBox="0 0 24 24" fill="none" xmlns="http://www.w3.org/2000/svg">
<path d="M13.5 9.75C13.5 9.55109 13.421 9.36032 13.2803 9.21967C13.1397 9.07902 12.9489 9 12.75 9H6.75C6.55109 9 6.36032 9.07902 6.21967 9.21967C6.07902 9.36032 6 9.55109 6 9.75C6 9.94891 6.07902 10.1397 6.21967 10.2803C6.36032 10.421 6.55109 10.5 6.75 10.5H12.75C12.9489 10.5 13.1397 10.421 13.2803 10.2803C13.421 10.1397 13.5 9.94891 13.5 9.75ZM12.5 12.75C12.5 12.5511 12.421 12.3603 12.2803 12.2197C12.1397 12.079 11.9489 12 11.75 12H6.75C6.55109 12 6.36032 12.079 6.21967 12.2197C6.07902 12.3603 6 12.5511 6 12.75C6 12.9489 6.07902 13.1397 6.21967 13.2803C6.36032 13.421 6.55109 13.5 6.75 13.5H11.75C11.9489 13.5 12.1397 13.421 12.2803 13.2803C12.421 13.1397 12.5 12.9489 12.5 12.75ZM12.75 15C12.9489 15 13.1397 15.079 13.2803 15.2197C13.421 15.3603 13.5 15.5511 13.5 15.75C13.5 15.9489 13.421 16.1397 13.2803 16.2803C13.1397 16.421 12.9489 16.5 12.75 16.5H6.75C6.55109 16.5 6.36032 16.421 6.21967 16.2803C6.07902 16.1397 6 15.9489 6 15.75C6 15.5511 6.07902 15.3603 6.21967 15.2197C6.36032 15.079 6.55109 15 6.75 15H12.75Z" fill="#F8F8F8"/>
<path fill-rule="evenodd" clip-rule="evenodd" d="M6 21.75H19C19.7293 21.75 20.4288 21.4603 20.9445 20.9445C21.4603 20.4288 21.75 19.7293 21.75 19V13.5C21.75 13.3011 21.671 13.1103 21.5303 12.9697C21.3897 12.829 21.1989 12.75 21 12.75H17.75V4.943C17.75 3.52 16.141 2.692 14.983 3.519L14.808 3.644C14.4248 3.91602 13.9663 4.06182 13.4964 4.06111C13.0264 4.06039 12.5684 3.91319 12.186 3.64C11.5476 3.18567 10.7835 2.94153 10 2.94153C9.21645 2.94153 8.45238 3.18567 7.814 3.64C7.43162 3.91319 6.97359 4.06039 6.50364 4.06111C6.03369 4.06182 5.57521 3.91602 5.192 3.644L5.017 3.519C3.859 2.692 2.25 3.519 2.25 4.943V18C2.25 18.9946 2.64509 19.9484 3.34835 20.6516C4.05161 21.3549 5.00544 21.75 6 21.75ZM8.686 4.86C9.06995 4.58744 9.52915 4.44102 10 4.44102C10.4709 4.44102 10.9301 4.58744 11.314 4.86C11.9507 5.31512 12.7136 5.56021 13.4962 5.56111C14.2788 5.562 15.0423 5.31866 15.68 4.865L15.855 4.74C15.8923 4.71341 15.9363 4.6976 15.982 4.6943C16.0277 4.691 16.0735 4.70034 16.1143 4.7213C16.1551 4.74225 16.1893 4.77402 16.2132 4.81312C16.2372 4.85222 16.2499 4.89715 16.25 4.943V19C16.25 19.45 16.358 19.875 16.55 20.25H6C5.40326 20.25 4.83097 20.0129 4.40901 19.591C3.98705 19.169 3.75 18.5967 3.75 18V4.943C3.75012 4.89715 3.76284 4.85222 3.78678 4.81312C3.81072 4.77402 3.84495 4.74225 3.88573 4.7213C3.9265 4.70034 3.97226 4.691 4.01798 4.6943C4.06371 4.6976 4.10765 4.71341 4.145 4.74L4.32 4.865C4.95775 5.31866 5.72116 5.562 6.5038 5.56111C7.28644 5.56021 8.0493 5.31512 8.686 4.86ZM17.75 19V14.25H20.25V19C20.25 19.3315 20.1183 19.6495 19.8839 19.8839C19.6495 20.1183 19.3315 20.25 19 20.25C18.6685 20.25 18.3505 20.1183 18.1161 19.8839C17.8817 19.6495 17.75 19.3315 17.75 19Z" fill="#F8F8F8"/>
</svg>
